<svg width="32" height="51" viewBox="0 0 32 51" fill="none" xmlns="http://www.w3.org/2000/svg">
<path id="Trident" d="M29.9157 5.07564C21.1494 12.8621 22.4981 24.9745 22.5594 25.4936L22.682 26.4741L23.7241 26.5895C24.0307 26.6471 25.8084 26.9932 25.5632 29.5887C25.3793 31.8381 22.682 32.1842 21.5785 32.2996C20.659 31.146 17.6552 26.3587 17.3487 12.6314C17.3487 11.9393 17.3487 11.2472 17.3487 10.555C17.3487 10.555 17.5939 5.65242 17.8391 3.57602L16.0613 0L14.2222 3.46067C14.4674 5.53707 14.7126 10.4397 14.7126 10.4397C14.7126 11.1318 14.7126 11.8239 14.7126 12.5161C14.4061 26.2434 11.4023 31.0883 10.4828 32.1842C9.31801 32.1265 6.68199 31.7228 6.49808 29.4733C6.25287 26.8778 8.03065 26.5318 8.33716 26.4741L9.37931 26.3587L9.50192 25.3782C9.56322 24.8591 10.9119 12.7468 2.14559 4.96029L0 3.17228V40.4898H8.88889C9.62452 45.9692 14.9579 50.0643 15.2031 50.2373L16 50.8718L16.7969 50.2373C17.0421 50.0643 22.4368 45.9692 23.1111 40.4898H32V3.17228L29.9157 5.07564ZM7.04981 24.3977C5.76245 24.8591 4.22988 26.0704 3.98467 28.3775H2.57471V9.11309C7.04981 14.7655 7.11111 21.9752 7.04981 24.3977ZM8.70498 36.9138L8.76628 38.0673H2.57471V30.7423H4.16858C4.84291 33.0494 7.04981 34.0299 9.0728 34.4336C8.70498 35.5872 8.70498 36.7407 8.70498 36.9138ZM11.2797 36.8561C11.2797 36.2216 11.341 35.2988 11.6475 34.722C13.9157 35.1834 14.5287 36.9138 14.7126 38.125H11.341L11.2797 36.8561ZM14.7739 46.4306C13.4866 44.9887 11.954 42.9123 11.5249 40.4898H14.7739V46.4306ZM16.3678 34.2606C16.2452 34.376 16.1226 34.549 16 34.722C15.8774 34.549 15.7548 34.4336 15.6322 34.2606C14.9579 33.5685 14.1609 32.9917 13.2414 32.6456C14.0996 31.2614 15.1418 28.9542 16 25.0898C16.8582 28.9542 17.9004 31.319 18.7586 32.6456C17.8391 32.9917 17.0421 33.5108 16.3678 34.2606ZM17.2874 46.3729V40.4898H20.5364C20.1686 42.8546 18.636 44.931 17.2874 46.3729ZM20.7816 36.8561L20.7203 38.0673H17.3487C17.5326 36.8561 18.1456 35.1258 20.4138 34.6643C20.7203 35.2988 20.7816 36.2216 20.7816 36.8561ZM25.0115 24.3977C24.8889 22.0329 25.0115 14.8232 29.4866 9.11309V28.3775H28.0766C27.8314 26.0127 26.3602 24.8591 25.0115 24.3977ZM23.295 38.0673L23.3563 36.9138C23.3563 36.7407 23.4176 35.5872 23.0498 34.4336C25.0115 34.0876 27.2184 33.0494 27.954 30.7423H29.5479V38.0673H23.295Z" fill="#F2CD13"/>
</svg>
